<?xml version="1.0" encoding="utf-8"?>
<!-- Generated by Mocodo 4.3.2 -->
<svg width="652" height="290" viewBox="0 0 652 290" xmlns="http://www.w3.org/2000/svg">
<rect x="0" y="0" width="652" height="290" fill="#ffffff" stroke="none" stroke-width="0"/>

<!-- Association CONTIENT -->
<g>
	<line x1="70" y1="145" x2="195" y2="145" stroke="#d6604d" stroke-width="2"/>
	<line x1="319" y1="145" x2="195" y2="145" stroke="#d6604d" stroke-width="2"/>
	<g>
		<path d="M213 120 a14 14 90 0 1 14 14 V145 h-64 V134 a14 14 90 0 1 14 -14" fill="#f4a582" stroke="#f4a582" stroke-width="0"/>
		<path d="M227 145 v11 a14 14 90 0 1 -14 14 H177 a14 14 90 0 1 -14 -14 V145 H64" fill="#fddbc7" stroke="#fddbc7" stroke-width="0"/>
		<rect x="163" y="120" width="64" height="50" fill="none" rx="14" stroke="#d6604d" stroke-width="2"/>
		<line x1="163" y1="145" x2="227" y2="145" stroke="#d6604d" stroke-width="1"/>
		<text x="170" y="137.75" fill="#000000" font-family="Verdana" font-size="12">contient</text>
	</g>
	<text x="136" y="162" fill="#4d4d4d" font-family="Verdana" font-size="12">0,1</text>
	<text x="233" y="162" fill="#4d4d4d" font-family="Verdana" font-size="12">0,1</text>
</g>

<!-- Association AFFICHE -->
<g>
	<line x1="319" y1="145" x2="439" y2="145" stroke="#d6604d" stroke-width="2"/>
	<line x1="571" y1="145" x2="439" y2="145" stroke="#d6604d" stroke-width="2"/>
	<g>
		<path d="M453 120 a14 14 90 0 1 14 14 V145 h-56 V134 a14 14 90 0 1 14 -14" fill="#f4a582" stroke="#f4a582" stroke-width="0"/>
		<path d="M467 145 v11 a14 14 90 0 1 -14 14 H425 a14 14 90 0 1 -14 -14 V145 H56" fill="#fddbc7" stroke="#fddbc7" stroke-width="0"/>
		<rect x="411" y="120" width="56" height="50" fill="none" rx="14" stroke="#d6604d" stroke-width="2"/>
		<line x1="411" y1="145" x2="467" y2="145" stroke="#d6604d" stroke-width="1"/>
		<text x="419" y="137.75" fill="#000000" font-family="Verdana" font-size="12">affiche</text>
	</g>
	<text x="384" y="162" fill="#4d4d4d" font-family="Verdana" font-size="12">0,N</text>
	<text x="473" y="162" fill="#4d4d4d" font-family="Verdana" font-size="12">0,1</text>
</g>

<!-- Entity ANIMATEUR -->
<g>
	<g>
		<rect x="9" y="9" width="122" height="25" fill="#bababa" stroke="none" stroke-width="0" opacity="1"/>
		<rect x="9" y="34" width="122" height="247" fill="#e0e0e0" stroke="none" stroke-width="0" opacity="1"/>
		<rect x="9" y="9" width="122" height="272" fill="none" stroke="#878787" stroke-width="2" opacity="1"/>
		<line x1="9" y1="34" x2="131" y2="34" stroke="#878787" stroke-width="1"/>
	</g>
	<text x="39" y="26.75" fill="#000000" font-family="Verdana" font-size="12">animateur</text>
	<text x="14" y="51.8" fill="#000000" font-family="Verdana" font-size="12">ref animateur</text>
	<line x1="14" y1="54" x2="97" y2="54" stroke="#000000" stroke-width="1"/>
	<text x="14" y="68.8" fill="#000000" font-family="Verdana" font-size="12">anim_nomprenom</text>
	<text x="14" y="85.8" fill="#000000" font-family="Verdana" font-size="12">anim_nom</text>
	<text x="14" y="102.8" fill="#000000" font-family="Verdana" font-size="12">anim_prenom</text>
	<text x="14" y="119.8" fill="#000000" font-family="Verdana" font-size="12">anim_telfixe</text>
	<text x="14" y="136.8" fill="#000000" font-family="Verdana" font-size="12">anim_okfixe</text>
	<text x="14" y="153.8" fill="#000000" font-family="Verdana" font-size="12">anim_telmob</text>
	<text x="14" y="170.8" fill="#000000" font-family="Verdana" font-size="12">anim_okmob</text>
	<text x="14" y="187.8" fill="#000000" font-family="Verdana" font-size="12">anim_boitemail</text>
	<text x="14" y="204.8" fill="#000000" font-family="Verdana" font-size="12">anim_okmail</text>
	<text x="14" y="221.8" fill="#000000" font-family="Verdana" font-size="12">anim_login</text>
	<text x="14" y="238.8" fill="#000000" font-family="Verdana" font-size="12">anim_mdp</text>
	<text x="14" y="255.8" fill="#000000" font-family="Verdana" font-size="12">anim_clair</text>
	<text x="14" y="272.8" fill="#000000" font-family="Verdana" font-size="12">div4</text>
</g>

<!-- Entity NEW_EVEN -->
<g>
	<g>
		<rect x="259" y="9" width="120" height="25" fill="#bababa" stroke="none" stroke-width="0" opacity="1"/>
		<rect x="259" y="34" width="120" height="247" fill="#e0e0e0" stroke="none" stroke-width="0" opacity="1"/>
		<rect x="259" y="9" width="120" height="272" fill="none" stroke="#878787" stroke-width="2" opacity="1"/>
		<line x1="259" y1="34" x2="379" y2="34" stroke="#878787" stroke-width="1"/>
	</g>
	<text x="286" y="26.75" fill="#000000" font-family="Verdana" font-size="12">new_EVEN</text>
	<text x="264" y="51.8" fill="#000000" font-family="Verdana" font-size="12">ref new_EVEN</text>
	<line x1="264" y1="54" x2="350" y2="54" stroke="#000000" stroke-width="1"/>
	<text x="264" y="68.8" fill="#000000" font-family="Verdana" font-size="12">titre</text>
	<text x="264" y="85.8" fill="#000000" font-family="Verdana" font-size="12">sous_titre</text>
	<text x="264" y="102.8" fill="#000000" font-family="Verdana" font-size="12">date_EVEN</text>
	<text x="264" y="119.8" fill="#000000" font-family="Verdana" font-size="12">texte</text>
	<text x="264" y="136.8" fill="#000000" font-family="Verdana" font-size="12">lieu</text>
	<text x="264" y="153.8" fill="#000000" font-family="Verdana" font-size="12">horaires</text>
	<text x="264" y="170.8" fill="#000000" font-family="Verdana" font-size="12">image1</text>
	<text x="264" y="187.8" fill="#000000" font-family="Verdana" font-size="12">image2</text>
	<text x="264" y="204.8" fill="#000000" font-family="Verdana" font-size="12">mod_participation</text>
	<text x="264" y="221.8" fill="#000000" font-family="Verdana" font-size="12">date_inscription</text>
	<text x="264" y="238.8" fill="#000000" font-family="Verdana" font-size="12">lieu_inscription</text>
	<text x="264" y="255.8" fill="#000000" font-family="Verdana" font-size="12">id_animateur</text>
</g>

<!-- Entity NEW_ACCUEIL_CHOIX -->
<g>
	<g>
		<rect x="499" y="111" width="144" height="25" fill="#bababa" stroke="none" stroke-width="0" opacity="1"/>
		<rect x="499" y="136" width="144" height="43" fill="#e0e0e0" stroke="none" stroke-width="0" opacity="1"/>
		<rect x="499" y="111" width="144" height="68" fill="none" stroke="#878787" stroke-width="2" opacity="1"/>
		<line x1="499" y1="136" x2="643" y2="136" stroke="#878787" stroke-width="1"/>
	</g>
	<text x="515" y="128.75" fill="#000000" font-family="Verdana" font-size="12">new_accueil_choix</text>
	<text x="504" y="153.8" fill="#000000" font-family="Verdana" font-size="12">ref new_accueil_choix</text>
	<line x1="504" y1="156" x2="638" y2="156" stroke="#000000" stroke-width="1"/>
	<text x="504" y="170.8" fill="#000000" font-family="Verdana" font-size="12">id_EVEN</text>
</g>
</svg>